<?xml version="1.0" standalone="no"?>
<!DOCTYPE svg PUBLIC "-//W3C//DTD SVG 20010904//EN"
 "http://www.w3.org/TR/2001/REC-SVG-20010904/DTD/svg10.dtd">
<svg version="1.0" xmlns="http://www.w3.org/2000/svg"
 width="260.000000pt" height="260.000000pt" viewBox="0 0 260.000000 260.000000"
 preserveAspectRatio="xMidYMid meet">
<metadata>
Created by potrace 1.11, written by Peter Selinger 2001-2013
</metadata>
<g transform="translate(0.000000,260.000000) scale(0.100000,-0.100000)"
fill="#000000" stroke="none">
<path d="M290 2584 c-142 -39 -249 -151 -280 -294 -8 -40 -10 -314 -8 -1025
l3 -970 31 -65 c39 -83 111 -155 194 -194 l65 -31 1005 0 1005 0 67 33 c115
56 193 154 218 272 8 40 10 312 8 1020 l-3 965 -24 60 c-33 83 -133 183 -216
216 l-60 24 -975 2 c-835 2 -983 0 -1030 -13z m1073 -468 c103 -43 128 -177
48 -257 -65 -65 -157 -65 -222 0 -124 123 13 325 174 257z m25 -593 c14 -10
35 -32 46 -47 20 -27 21 -39 21 -431 0 -392 -1 -404 -21 -431 -39 -53 -71 -69
-134 -69 -63 0 -95 16 -134 69 -20 26 -21 42 -24 404 -2 207 0 391 3 409 7 40
49 91 90 109 40 19 120 12 153 -13z"/>
</g>
</svg>
