<svg xmlns="http://www.w3.org/2000/svg" viewBox="0 0 117.16 117.16"><defs><style>.cls-18{fill:currentColor;}</style></defs><path class="cls-18" d="M89.87,66.92H85.69a2,2,0,0,0-1.5.59,2,2,0,0,0-.58,1.5V89.86a10.46,10.46,0,0,1-10.43,10.43H19a10.07,10.07,0,0,1-7.37-3.06,10.07,10.07,0,0,1-3.06-7.37V35.63a10,10,0,0,1,3.06-7.36A10.08,10.08,0,0,1,19,25.2H64.83a2,2,0,0,0,2.09-2.08V19a2,2,0,0,0-2.09-2.09H19A18.08,18.08,0,0,0,5.69,22.37,18,18,0,0,0,.18,35.63V89.86a18.08,18.08,0,0,0,5.51,13.27A18.07,18.07,0,0,0,19,108.63H73.18A18.8,18.8,0,0,0,92,89.86V69a2,2,0,0,0-2.08-2.09Zm0,0"/><path class="cls-18" d="M115.74,9.76a4,4,0,0,0-2.93-1.24H79.44A4,4,0,0,0,76.5,9.76a4.09,4.09,0,0,0,0,5.87L88,27.1,45.47,69.6a2,2,0,0,0,0,3L52.91,80a2,2,0,0,0,3,0l42.5-42.5L109.87,49A4.18,4.18,0,0,0,117,46.06V12.69a4,4,0,0,0-1.24-2.93Zm0,0"/></svg>
