<svg xmlns="http://www.w3.org/2000/svg" viewBox="0 0 117.16 117.16"><defs><style>.cls-1,.cls-2,.cls-3,.cls-4,.cls-5,.cls-6,.cls-7,.cls-8{fill:currentColor;}.cls-1{opacity:0.3;}.cls-2{opacity:0.4;}.cls-3{opacity:0.5;}.cls-4{opacity:0.6;}.cls-5{opacity:0.7;}.cls-6{opacity:0.8;}.cls-7{opacity:0.9;}</style></defs><path class="cls-1" d="M93.73,34a5.87,5.87,0,0,0,5.85-5.86,5.86,5.86,0,1,0-10,4.14A5.61,5.61,0,0,0,93.73,34Zm0,0"/><path class="cls-2" d="M112.76,55.94a7.07,7.07,0,1,0,2,5,6.75,6.75,0,0,0-2-5Zm0,0"/><path class="cls-3" d="M93.73,85.52a8.25,8.25,0,1,0,5.78,2.41,7.89,7.89,0,0,0-5.78-2.41Zm0,0"/><path class="cls-4" d="M60.92,98.4a9.39,9.39,0,1,0,6.63,2.75,9.05,9.05,0,0,0-6.63-2.75Zm0,0"/><path class="cls-5" d="M28.12,83.18a10.55,10.55,0,1,0,0,21.09,10.2,10.2,0,0,0,7.43-3.08,10.53,10.53,0,0,0,0-14.94,10.19,10.19,0,0,0-7.43-3.07Zm0,0"/><path class="cls-6" d="M25.78,60.92a11.29,11.29,0,0,0-3.45-8.28,11.27,11.27,0,0,0-8.27-3.43,11.27,11.27,0,0,0-8.27,3.43,11.67,11.67,0,0,0,0,16.55,11.24,11.24,0,0,0,8.27,3.44,11.24,11.24,0,0,0,8.27-3.44,11.25,11.25,0,0,0,3.45-8.27Zm0,0"/><path class="cls-7" d="M28.12,15.23A12.87,12.87,0,0,0,15.23,28.11,12.87,12.87,0,0,0,28.12,41,12.87,12.87,0,0,0,41,28.11,12.87,12.87,0,0,0,28.12,15.23Zm0,0"/><path class="cls-8" d="M60.92,0A13.56,13.56,0,0,0,51,4.1a13.56,13.56,0,0,0-4.1,10A13.58,13.58,0,0,0,51,24a14.17,14.17,0,0,0,19.92,0,13.58,13.58,0,0,0,4.1-10,13.58,13.58,0,0,0-4.1-10,13.56,13.56,0,0,0-10-4.1Zm0,0"/></svg>
